<svg xmlns="http://www.w3.org/2000/svg" version="1.1" xmlns:xlink="http://www.w3.org/1999/xlink" xmlns:svgjs="http://svgjs.dev/svgjs" width="100%" height="100%" viewBox="0 0 1000 600"><rect width="1000" height="600" x="0" y="0" fill="#6c63ff"/><g><circle r="166.66666666666666" cx="324.87783304850257" cy="347.10003658014534" fill="#3c1a5b" transform="matrix(0.7900836274714547,0,0,0.7900836274714547,0,25.761973297607057)"/><path d="M347.7397869058152 282.4543643283024L304.2150470680101 282.4543643283024Q293.64693479862024 282.4543643283024 288.27124763268785 285.8447124840893Q282.86501678967625 289.2656043169554 280.57424100873914 295.1910776703127Q278.2529215507229 301.1470947007492 276.7257376967648 309.27171280380617L276.7257376967648 309.27171280380617Q274.28224353043186 309.27171280380617 271.2278758225157 308.84410132469793Q268.1429644375204 308.3859461685105 266.1576254273749 307.2863737936607L266.1576254273749 307.2863737936607Q267.9291586979663 298.0621833157539 268.7843816561828 288.807449160768Q269.6701482914785 279.58325868286124 269.6701482914785 272.10005779846665L269.6701482914785 272.10005779846665Q275.8399710614691 272.31386353802077 284.7281810915051 272.5582129546541Q293.64693479862024 272.7720186942082 304.0928723596935 272.7720186942082Q314.53880992076665 272.7720186942082 325.7483394088189 272.7720186942082L325.7483394088189 272.7720186942082Q336.9578688968712 272.7720186942082 347.6481558745777 272.7720186942082Q358.307899175205 272.7720186942082 367.3182839135577 272.5582129546541Q376.32866865191033 272.31386353802077 382.2846856823468 272.10005779846665L382.2846856823468 272.10005779846665Q382.04033626571345 280.0108701619695 382.3763167135843 288.3798376816597Q382.712297161455 296.7488052013499 383.5980637967507 307.2863737936607L383.5980637967507 307.2863737936607Q381.3989190470511 308.3859461685105 378.64998810992654 308.93573235593533Q375.901057172802 309.4855185433603 372.6023400482526 309.27171280380617L372.6023400482526 309.27171280380617Q372.38853430869847 296.2906500451625 366.55469198657863 289.35723534819283Q360.7208496644588 282.4543643283024 347.7397869058152 282.4543643283024L347.7397869058152 282.4543643283024ZM315.42457655606233 393.5111741881334L315.42457655606233 278.69749204756556L336.10264593865463 278.69749204756556L336.10264593865463 393.5111741881334Q336.10264593865463 400.7500256558948 337.4160240530586 404.81233470742313Q338.7294021674626 408.9051874360308 342.4557307711202 410.55454599830557Q346.21260305185706 412.2039045605802 353.2376487800642 412.63151603968856L353.2376487800642 412.63151603968856Q353.90960967580577 414.4030493102799 354.1234154153599 416.69382509121704Q354.337221154914 419.01514454923324 354.337221154914 422.1000559342285L354.337221154914 422.1000559342285Q347.3121754267069 421.6419007780412 339.951149250629 421.5502697468037Q332.5595793974719 421.42809503848696 325.53453366926476 421.42809503848696L325.53453366926476 421.42809503848696Q320.92243843031144 421.42809503848696 315.7605570039332 421.5502697468037Q310.5681319004757 421.6419007780412 305.74223092196814 421.7640754863578Q300.9163299434607 421.8557065175953 296.7318461836155 422.1000559342285L296.7318461836155 422.1000559342285Q296.7318461836155 419.01514454923324 296.94565192316963 416.69382509121704Q297.1594576627238 414.4030493102799 297.8314185584653 412.63151603968856L297.8314185584653 412.63151603968856Q304.85646428667246 412.2039045605802 308.7049675986468 410.55454599830557Q312.5534709106212 408.9051874360308 313.9890237333418 404.81233470742313Q315.42457655606233 400.7500256558948 315.42457655606233 393.5111741881334L315.42457655606233 393.5111741881334Z " fill="#fff748" transform="matrix(0.7900836274714547,0,0,0.7900836274714547,0,25.761973297607057)"/><path d="M655.7518837688053 282.3644904065461L612.6049326081717 282.3644904065461Q602.1285500807477 282.3644904065461 596.7995231303817 285.7254108127428Q591.4402176177978 289.1166097811575 589.1693254514487 294.9906508514473Q586.8681547228815 300.89497048395503 585.3542266119821 308.94906803393997L585.3542266119821 308.94906803393997Q582.931941634543 308.94906803393997 579.9040854127442 308.5251681628881Q576.8459506287273 308.0709897296183 574.8778440845581 306.9809614897707L574.8778440845581 306.9809614897707Q576.6340006932014 297.8368356999382 577.4818004353051 288.66243134788766Q578.3598787396268 279.51830555805515 578.3598787396268 272.100057814648L578.3598787396268 272.100057814648Q584.4761483076604 272.31200775017385 593.287209913095 272.5542362479178Q602.1285500807477 272.7661861834437 612.4838183592997 272.7661861834437Q622.8390866378518 272.7661861834437 633.9513189718535 272.7661861834437L633.9513189718535 272.7661861834437Q645.0635513058553 272.7661861834437 655.6610480821513 272.7661861834437Q666.2282662962293 272.7661861834437 675.1604421505359 272.5542362479178Q684.0926180048424 272.31200775017385 689.9969376373502 272.100057814648L689.9969376373502 272.100057814648Q689.7547091396063 279.942205429107 690.0877733240042 288.2385314768358Q690.4208375084021 296.5348575245647 691.2989158127237 306.9809614897707L691.2989158127237 306.9809614897707Q689.1188593330286 308.0709897296183 686.3937887334096 308.61600384954204Q683.6687181337907 309.1610179694659 680.3986334142479 308.94906803393997L680.3986334142479 308.94906803393997Q680.186683478722 296.0806790912949 674.4034780950861 289.20744546781145Q668.6202727114503 282.3644904065461 655.7518837688053 282.3644904065461L655.7518837688053 282.3644904065461ZM623.7171649421734 392.4573426311521L623.7171649421734 278.6402272537335L644.2157515637516 278.6402272537335L644.2157515637516 392.4573426311521Q644.2157515637516 399.63336187681534 645.5177297391251 403.66041065180787Q646.8197079144986 407.71773798901836 650.5136925050933 409.3527803487897Q654.2379556579058 410.987822708561 661.2020249680431 411.41172257961284L661.2020249680431 411.41172257961284Q661.868153336839 413.1678791882563 662.0801032723648 415.43877135460536Q662.2920532078908 417.73994208317254 662.2920532078908 420.79807686718937L662.2920532078908 420.79807686718937Q655.3279838977535 420.34389843391955 648.0308504032182 420.2530627472655Q640.703438346465 420.1319484983936 633.7393690363276 420.1319484983936L633.7393690363276 420.1319484983936Q629.1673061414114 420.1319484983936 624.0502291265714 420.2530627472655Q618.9028735495133 420.34389843391955 614.1188607190711 420.46501268279144Q609.3348478886289 420.55584836944547 605.1866848647645 420.79807686718937L605.1866848647645 420.79807686718937Q605.1866848647645 417.73994208317254 605.3986348002904 415.43877135460536Q605.6105847358164 413.1678791882563 606.2767131046121 411.41172257961284L606.2767131046121 411.41172257961284Q613.2407824147494 410.987822708561 617.055881254216 409.3527803487897Q620.8709800936825 407.71773798901836 622.294072517928 403.66041065180787Q623.7171649421734 399.63336187681534 623.7171649421734 392.4573426311521L623.7171649421734 392.4573426311521ZM751.8863188109186 422.1000550425629L751.8863188109186 422.1000550425629Q736.4139735175265 422.1000550425629 726.1798194878464 415.10570717020755Q715.9153868959484 408.1416378600701 710.7983098811083 396.2724414706187Q705.6812328662683 384.37296651894917 705.6812328662683 370.2025994009306L705.6812328662683 370.2025994009306Q705.6812328662683 356.2441822184379 711.1313740655062 344.4961000778584Q716.5815152647441 332.7177393750609 726.7248336077702 325.51144156717965Q736.8681519507963 318.3354223215164 750.796290571071 318.3354223215164L750.796290571071 318.3354223215164Q764.9666576890896 318.3354223215164 773.5960479212164 324.42141332733206Q782.195159591125 330.5376828953657 786.4644368638615 340.7718369250458Q790.7034355743798 351.0362695169439 791.5815138787015 363.45048002631916L791.5815138787015 363.45048002631916Q790.7034355743798 367.8105929857095 788.3114291591587 370.8687277697263L788.3114291591587 370.8687277697263Q784.5871660063461 370.8687277697263 777.199196825157 370.8687277697263Q769.7809490817498 370.8687277697263 760.3945947941734 370.95956345638035Q751.0385190688149 371.08067770525224 741.2282649101867 371.41374188965017Q731.4180107515584 371.746806074048 722.6977848327778 372.1707059450998L722.6977848327778 372.1707059450998L722.6977848327778 361.05847361109807L768.9028707774281 361.05847361109807Q768.9028707774281 346.67615655755355 763.6646795137161 337.713702141029Q758.4264882500041 328.7815262867224 748.8584625891198 328.7815262867224L748.8584625891198 328.7815262867224Q743.6202713254078 328.7815262867224 738.5940299972217 331.9607753196111Q733.5980672312536 335.109745790282 730.3279825117108 343.073007653613Q727.0578977921681 351.0362695169439 727.0578977921681 365.6305365060143L727.0578977921681 365.6305365060143Q727.0578977921681 376.31886896896424 729.782968391787 386.4621873119904Q732.508038991406 396.5752270927985 739.3509940526714 403.236510780756Q746.2242276761548 409.8977944687135 758.880666683274 409.8977944687135L758.880666683274 409.8977944687135Q766.0566859289372 409.8977944687135 773.0510338012925 406.6277097491708Q780.0151031114299 403.357625029628 785.4652443106678 397.24135546159425L785.4652443106678 397.24135546159425Q787.2214009193111 398.119433765916 788.8564432790824 400.1783759967392Q790.4914856388539 402.2675967897803 790.7034355743798 403.9934748362057L790.7034355743798 403.9934748362057Q783.2851878309726 413.80372899483393 773.5960479212164 417.95189201869846Q763.876629449242 422.1000550425629 751.8863188109186 422.1000550425629ZM808.3558373474671 420.79807686718937L808.3558373474671 420.79807686718937Q808.3558373474671 417.73994208317254 808.567787282993 415.43877135460536Q808.8100157807369 413.1678791882563 809.4458655873146 411.41172257961284L809.4458655873146 411.41172257961284Q818.1660915060954 410.987822708561 821.3453405389841 407.1727238690945Q824.4943110096549 403.357625029628 824.4943110096549 392.4573426311521L824.4943110096549 392.4573426311521L824.4943110096549 349.28011290830057Q824.4943110096549 344.04192164458857 823.4042827698073 340.7718369250458Q822.3142545299597 337.50175220550307 818.832219874891 335.7758741590777Q815.3501852198224 334.0197175504344 808.1438874119411 333.80776761490847L808.1438874119411 333.80776761490847Q808.1438874119411 331.4157611996874 808.567787282993 329.44765465551814Q809.0219657162628 327.4795481113489 810.1119939561104 325.72339150270557L810.1119939561104 325.72339150270557Q813.805978546705 325.51144156717965 819.3772339948149 324.33057764067803Q824.9182108807067 323.11943515195856 830.1564021444187 321.4843927921871Q835.3945934081307 319.8493504324158 838.2407782566218 318.3354223215164L838.2407782566218 318.3354223215164Q840.1786062385729 318.97127212809414 841.6016986628184 320.9393786722634Q843.0247910870639 322.90748521643263 843.0247910870639 327.05564824029705L843.0247910870639 327.05564824029705Q843.0247910870639 330.5376828953657 842.691726902666 335.109745790282Q842.3586627182681 339.68180868519823 841.2686344784206 348.6139845395048L841.2686344784206 348.6139845395048L839.0885779987254 348.8562130372487Q842.1467127827422 340.5598869895199 843.5698052069877 337.713702141029Q844.9928976312331 334.89779585475605 845.628747437811 334.0197175504344L845.628747437811 334.0197175504344Q849.1410606550976 328.9934762222483 857.3162724539544 323.6644492718823Q865.4914842528112 318.3354223215164 876.8156665223389 318.3354223215164L876.8156665223389 318.3354223215164Q885.9597923121715 318.3354223215164 893.5899899911046 322.4533067831628Q901.2201876700376 326.60146980702723 904.7325008873242 336.6236739011814L904.7325008873242 336.6236739011814Q905.5803006294279 339.2579088141464 905.5803006294279 343.82997170906265L905.5803006294279 343.82997170906265L904.9444508228503 343.82997170906265Q906.9125573670195 338.3798305098247 909.3045637822406 335.109745790282L909.3045637822406 335.109745790282Q912.9985483728352 330.0835044620959 921.0829244850381 324.7544775117299Q929.137022035023 319.42545056136396 940.4612043045507 319.42545056136396L940.4612043045507 319.42545056136396Q948.7575303522796 319.42545056136396 955.7215996624169 322.78637096756063Q962.7159475347722 326.1775699359754 966.9549462452906 333.8986033015624Q971.224223518027 341.6499152293675 971.224223518027 354.9422040430644L971.224223518027 354.9422040430644L971.224223518027 392.4573426311521Q971.224223518027 399.84531181234127 972.6170373800544 403.90263914955176Q974.0401298042999 407.9296879245443 976.9771503394447 409.4436160354436Q979.9444494368076 410.987822708561 984.3045623961981 411.41172257961284L984.3045623961981 411.41172257961284Q984.9404122027757 413.3798291237822 985.1523621383018 415.55988560347737Q985.3945906360456 417.73994208317254 985.3945906360456 420.79807686718937L985.3945906360456 420.79807686718937Q980.5802992433855 420.34389843391955 974.3731939886978 420.2530627472655Q968.1660887340101 420.1319484983936 961.6259192949246 420.1319484983936L961.6259192949246 420.1319484983936Q957.2658063355343 420.1319484983936 952.693743440618 420.2530627472655Q948.0914019834838 420.34389843391955 943.7312890240935 420.46501268279144Q939.3711760647031 420.55584836944547 935.6771914741086 420.79807686718937L935.6771914741086 420.79807686718937Q935.6771914741086 417.73994208317254 935.8891414096345 415.43877135460536Q936.1010913451604 413.1678791882563 936.7672197139561 411.41172257961284L936.7672197139561 411.41172257961284Q942.6412607842459 410.987822708561 945.9113455037887 409.3527803487897Q949.1814302233314 407.71773798901836 950.513686960923 403.66041065180787Q951.8156651362965 399.63336187681534 951.8156651362965 392.4573426311521L951.8156651362965 392.4573426311521L951.8156651362965 359.30231700245474Q951.8156651362965 343.82997170906265 946.2444096881866 338.2587162609527Q940.7034328022946 332.7177393750609 931.7409783857701 332.7177393750609L931.7409783857701 332.7177393750609Q926.2908371865321 332.7177393750609 920.6287460517683 336.32088827900157Q914.9666549170045 339.89375862072416 911.2726703264099 347.85702048405506Q907.5484071735973 355.82028234738607 907.5484071735973 369.112571161083L907.5484071735973 369.112571161083L907.5484071735973 392.4573426311521Q907.5484071735973 403.78152490067976 911.030441828666 407.38467380462043Q914.5427550459526 410.987822708561 922.8088025314635 411.41172257961284L922.8088025314635 411.41172257961284Q923.4749309002592 413.3798291237822 923.6868808357851 415.55988560347737Q923.8988307713109 417.73994208317254 923.8988307713109 420.79807686718937L923.8988307713109 420.79807686718937Q918.4486895720731 420.34389843391955 911.3635060130639 420.2530627472655Q904.2783224540544 420.1319484983936 897.950102950495 420.1319484983936L897.950102950495 420.1319484983936Q891.6521620091534 420.1319484983936 884.77892838567 420.2530627472655Q877.9056947621866 420.34389843391955 872.0316536918967 420.79807686718937L872.0316536918967 420.79807686718937Q872.0316536918967 417.73994208317254 872.2436036274228 415.43877135460536Q872.4555535629486 413.1678791882563 873.1216819317444 411.41172257961284L873.1216819317444 411.41172257961284Q878.9957230020341 410.987822708561 882.265807721577 409.3527803487897Q885.5358924411197 407.71773798901836 886.8378706164932 403.66041065180787Q888.1398487918666 399.63336187681534 888.1398487918666 392.4573426311521L888.1398487918666 392.4573426311521L888.1398487918666 358.21228876260716Q888.1398487918666 342.73994346921506 882.5988719059749 337.16868802110514Q877.027616457865 331.6277111352133 868.0954406035582 331.6277111352133L868.0954406035582 331.6277111352133Q862.6452994043204 331.6277111352133 856.9832082695566 335.23086003915387Q851.3211171347928 338.8037303808766 847.5968539819801 346.7669922442075Q843.9028693913856 354.7302541075385 843.9028693913856 368.0225429212354L843.9028693913856 368.0225429212354L843.9028693913856 392.4573426311521Q843.9028693913856 403.357625029628 847.1729541109282 407.1727238690945Q850.4430388304711 410.987822708561 859.1632647492518 411.41172257961284L859.1632647492518 411.41172257961284Q859.7991145558294 413.3798291237822 860.0413430535734 415.55988560347737Q860.2532929890992 417.73994208317254 860.2532929890992 420.79807686718937L860.2532929890992 420.79807686718937Q856.5290298362868 420.55584836944547 851.9569669413704 420.46501268279144Q847.3849040464543 420.34389843391955 842.8128411515379 420.2530627472655Q838.2407782566218 420.1319484983936 834.3045651682833 420.1319484983936L834.3045651682833 420.1319484983936Q830.6105805776886 420.1319484983936 825.7962891850284 420.2530627472655Q821.0122763545862 420.34389843391955 816.4402134596701 420.46501268279144Q811.8378720025357 420.55584836944547 808.3558373474671 420.79807686718937ZM1042.2880090436458 421.0100268027153L1042.2880090436458 421.0100268027153Q1027.6634634923576 421.0100268027153 1019.3974160068467 412.5017508194604Q1011.1010899591179 403.9934748362057 1011.1010899591179 382.192910039254L1011.1010899591179 382.192910039254L1011.1010899591179 349.28011290830057Q1011.1010899591179 341.6499152293675 1008.9210334794227 337.8348163899009Q1006.7409769997275 334.0197175504344 996.7187729055734 333.80776761490847L996.7187729055734 333.80776761490847Q996.7187729055734 331.4157611996874 997.0518370899711 329.53849034217205Q997.3849012743691 327.6914980468748 998.2327010164727 325.72339150270557L998.2327010164727 325.72339150270557Q1005.0150989533022 325.2994916316537 1012.9480822544151 323.11943515195856Q1020.911344117746 320.9393786722634 1025.9375854459322 318.3354223215164L1025.9375854459322 318.3354223215164Q1027.9056919901013 318.97127212809414 1029.2985058521288 321.0604929211353Q1030.7215982763744 323.11943515195856 1030.7215982763744 327.90344798240073L1030.7215982763744 327.90344798240073L1030.7215982763744 377.4088972088118Q1030.7215982763744 392.00316419788226 1034.7486470513668 399.84531181234127Q1038.8059743885774 407.71773798901836 1048.8281784827313 407.71773798901836L1048.8281784827313 407.71773798901836Q1059.7284608812074 407.71773798901836 1067.0255943757425 398.54333363696776Q1074.3227278702777 389.39920784713524 1074.3227278702777 370.4145493364565L1074.3227278702777 370.4145493364565L1074.3227278702777 348.190084668453Q1074.3227278702777 340.5598869895199 1071.5976572706588 336.7447881500533Q1068.8725866710397 332.9296893105868 1057.9723042725639 332.7177393750609L1057.9723042725639 332.7177393750609Q1057.9723042725639 330.3257329598398 1058.18425420809 328.44846210232447Q1058.4264827058337 326.60146980702723 1059.5165109456814 324.633363262858L1059.5165109456814 324.633363262858Q1067.994508366718 324.20946339180614 1076.169720165575 322.3624710965088Q1084.344931964432 320.51547880121154 1089.159223357092 318.3354223215164L1089.159223357092 318.3354223215164Q1091.1273299012614 318.97127212809414 1092.5201437632886 321.0604929211353Q1093.9432361875342 323.11943515195856 1093.9432361875342 327.90344798240073L1093.9432361875342 327.90344798240073L1093.9432361875342 391.1250858935606L1076.9569627832427 399.2094620057636Q1075.866934543395 402.02536829203643 1073.898827999226 404.75043889165545Q1071.9307214550568 407.47550949127435 1069.5387150398356 409.8977944687135L1069.5387150398356 409.8977944687135Q1063.8766239050717 415.55988560347737 1057.548404401512 418.28495620309627Q1051.2201848979525 421.0100268027153 1042.2880090436458 421.0100268027153ZM1081.317075742633 422.1000550425629L1081.317075742633 422.1000550425629Q1079.1370192629379 421.0100268027153 1077.5019769031665 418.92080600967404Q1075.866934543395 416.8618637788509 1075.866934543395 409.4436160354436L1075.866934543395 409.4436160354436Q1075.866934543395 407.0516096202225 1076.169720165575 402.6914966608322Q1076.502784349973 398.33138370144184 1078.0469910230902 390.4892360869828L1078.0469910230902 390.4892360869828L1093.9432361875342 390.4892360869828Q1093.9432361875342 395.48519885295093 1094.821314491856 398.8763978213657Q1095.6993927961776 402.2675967897803 1098.6364133313223 403.78152490067976Q1101.5734338664674 405.2954530115792 1107.477753498975 405.2954530115792L1107.477753498975 405.2954530115792Q1107.477753498975 407.47550949127435 1107.235525001231 410.20058009089337Q1107.0235750657052 412.92565069051227 1106.1454967613836 415.34793566795145L1106.1454967613836 415.34793566795145Q1100.6953555621458 415.55988560347737 1093.5193363164824 417.4068778987746Q1086.313038508601 419.25387019407196 1081.317075742633 422.1000550425629Z " fill="#3c1a5b" transform="matrix(0.7900836274714547,0,0,0.7900836274714547,0,25.761973297607057)"/></g></svg>